<?xml version="1.0" encoding="UTF-8" standalone="no"?>
<!-- Created with Inkscape (http://www.inkscape.org/) -->

<svg
   width="31.607824mm"
   height="48.275024mm"
   viewBox="0 0 31.607824 48.275024"
   version="1.1"
   id="svg1"
   xml:space="preserve"
   sodipodi:docname="parchment-center.svg"
   inkscape:version="1.4.3 (0d15f75042, 2025-12-25)"
   xmlns:inkscape="http://www.inkscape.org/namespaces/inkscape"
   xmlns:sodipodi="http://sodipodi.sourceforge.net/DTD/sodipodi-0.dtd"
   xmlns="http://www.w3.org/2000/svg"
   xmlns:svg="http://www.w3.org/2000/svg"><sodipodi:namedview
     id="namedview1"
     pagecolor="#ffffff"
     bordercolor="#000000"
     borderopacity="0.25"
     inkscape:showpageshadow="2"
     inkscape:pageopacity="0.0"
     inkscape:pagecheckerboard="0"
     inkscape:deskcolor="#d1d1d1"
     inkscape:document-units="mm"
     showguides="true"
     inkscape:zoom="2.0099393"
     inkscape:cx="135.07871"
     inkscape:cy="99.505494"
     inkscape:window-width="1805"
     inkscape:window-height="1131"
     inkscape:window-x="0"
     inkscape:window-y="0"
     inkscape:window-maximized="1"
     inkscape:current-layer="layer1"><sodipodi:guide
       position="-1.2591822e-06,28.735057"
       orientation="1,0"
       id="guide1"
       inkscape:locked="false" /><sodipodi:guide
       position="31.607825,30.284015"
       orientation="1,0"
       id="guide2"
       inkscape:locked="false" /><sodipodi:guide
       position="-11.609795,48.275023"
       orientation="0,-1"
       id="guide3"
       inkscape:locked="false" /><sodipodi:guide
       position="-18.020514,22.989154"
       orientation="1,0"
       id="guide4"
       inkscape:locked="false" /><sodipodi:guide
       position="7.1386107,4.3395995e-07"
       orientation="0,-1"
       id="guide5"
       inkscape:locked="false" /><sodipodi:guide
       position="49.517412,14.647875"
       orientation="1,0"
       id="guide6"
       inkscape:locked="false" /></sodipodi:namedview><defs
     id="defs1" /><g
     inkscape:label="Calque 1"
     inkscape:groupmode="layer"
     id="layer1"
     transform="translate(-80.493095,-24.16921)"><path
       d="m 80.493094,33.868254 c 2.47702,0.14542 3.57823,0.33843 4.03634,0.70747 0.22514,0.18137 0.45058,0.16697 0.70612,-0.0451 0.21626,-0.17947 0.97339,-0.27733 1.78594,-0.23083 1.17266,0.0671 1.39743,0.15881 1.3328,0.54374 -0.0944,0.56202 0.29271,0.60413 0.72833,0.0792 0.26598,-0.32049 1.75202,-0.38623 9.011268,-0.39868 4.781038,-0.008 8.878998,-0.615567 9.106608,-0.702857 0.29468,-0.11308 0.41382,0.002 0.41382,0.39867 0,0.68966 0.30241,0.71675 0.71029,0.0636 0.25568,-0.40941 2.54062,-0.48134 3.77631,-0.561426 v 28.226893 c -2.52704,-0.17734 -3.57265,-0.243303 -3.75173,-0.563303 -0.30294,-0.54132 -0.73487,-0.53183 -0.73487,0.0161 0,0.34904 -0.1881,0.40111 -0.99219,0.27464 -1.35839,-0.21364 -12.436336,0.302037 -14.882806,0.511067 -1.80453,0.15417 -2.03005,0.11873 -2.4884,-0.39113 -0.63548,-0.70689 -1.03817,-0.72238 -0.81889,-0.0315 0.15617,0.49203 0.0475,0.52917 -1.54762,0.52917 -1.12262,0 -1.76317,-0.11431 -1.85329,-0.33073 -0.10156,-0.2439 -0.2321,-0.21528 -0.49723,0.10903 -0.27499,0.33637 -1.92505,-0.03024 -4.0408,0.09537"
       style="fill:#000000"
       id="path1-2"
       sodipodi:nodetypes="cssscsccssccsssssssssc" /></g></svg>
