<?xml version="1.0" encoding="UTF-8" standalone="no"?>
<!-- Created with Inkscape (http://www.inkscape.org/) -->

<svg
   width="17.909578mm"
   height="48.275017mm"
   viewBox="0 0 17.909578 48.275016"
   version="1.1"
   id="svg1"
   xml:space="preserve"
   sodipodi:docname="parchment-right.svg"
   inkscape:version="1.4.3 (0d15f75042, 2025-12-25)"
   xmlns:inkscape="http://www.inkscape.org/namespaces/inkscape"
   xmlns:sodipodi="http://sodipodi.sourceforge.net/DTD/sodipodi-0.dtd"
   xmlns="http://www.w3.org/2000/svg"
   xmlns:svg="http://www.w3.org/2000/svg"><sodipodi:namedview
     id="namedview1"
     pagecolor="#ffffff"
     bordercolor="#000000"
     borderopacity="0.25"
     inkscape:showpageshadow="2"
     inkscape:pageopacity="0.0"
     inkscape:pagecheckerboard="0"
     inkscape:deskcolor="#d1d1d1"
     inkscape:document-units="mm"
     showguides="true"
     inkscape:zoom="2.7682187"
     inkscape:cx="-22.216453"
     inkscape:cy="105.84424"
     inkscape:window-width="1805"
     inkscape:window-height="1131"
     inkscape:window-x="0"
     inkscape:window-y="0"
     inkscape:window-maximized="1"
     inkscape:current-layer="layer1"><sodipodi:guide
       position="-31.607827,28.735057"
       orientation="1,0"
       id="guide1"
       inkscape:locked="false" /><sodipodi:guide
       position="-1.2486963e-06,30.284015"
       orientation="1,0"
       id="guide2"
       inkscape:locked="false" /><sodipodi:guide
       position="-43.217621,48.275023"
       orientation="0,-1"
       id="guide3"
       inkscape:locked="false" /><sodipodi:guide
       position="-49.62834,22.989154"
       orientation="1,0"
       id="guide4"
       inkscape:locked="false" /><sodipodi:guide
       position="-24.469215,4.3395995e-07"
       orientation="0,-1"
       id="guide5"
       inkscape:locked="false" /><sodipodi:guide
       position="17.909586,14.647875"
       orientation="1,0"
       id="guide6"
       inkscape:locked="false" /></sodipodi:namedview><defs
     id="defs1" /><g
     inkscape:label="Calque 1"
     inkscape:groupmode="layer"
     id="layer1"
     transform="translate(-112.10092,-24.16921)"><path
       d="m 126.00513,72.283664 c -0.0883,-0.0883 -0.0916,-0.74278 -0.007,-1.45437 0.13894,-1.17319 0.0881,-1.34498 -0.54499,-1.843 -0.77421,-0.609 -0.91631,-1.58792 -0.30425,-2.09589 0.5166,-0.42874 0.26653,-0.79617 -0.54187,-0.79617 -0.37349,0 -0.64584,-0.15435 -0.64584,-0.36602 0,-0.20131 -0.24703,-0.43061 -0.54896,-0.50957 -0.46769,-0.1223 -0.50482,-0.22604 -0.2508,-0.70068 0.44731,-0.83581 1.27389,-7.51618 1.62134,-13.10369 0.28042,-4.509495 0.2545,-5.569475 -0.29346,-12.000415 -0.33058,-3.8797 -0.68969,-7.1531 -0.79803,-7.27422 -0.10833,-0.12112 -0.0237,-0.5676 0.18814,-0.99219 0.27643,-0.55412 0.57788,-0.77197 1.0682,-0.77197 0.645,0 0.65867,-0.027 0.2452,-0.48386 -0.63347,-0.69997 -0.5385,-1.51525 0.24863,-2.13441 0.61125,-0.48081 0.6765,-0.69318 0.59531,-1.93743 -0.0835,-1.28017 -0.0412,-1.40452 0.50412,-1.48197 0.64048,-0.091 0.66873,-0.0108 0.60172,1.70803 -0.0334,0.85684 0.10481,1.24181 0.63692,1.77391 0.78694,0.78695 0.837,1.15491 0.26771,1.96769 -0.38517,0.54991 -0.37699,0.58804 0.12619,0.58804 0.29594,0 0.73863,0.30609 0.98376,0.68021 0.4198,0.64069 0.40951,1.11858 -0.17708,8.22636 -0.57651,6.9857 -0.59859,7.912815 -0.29729,12.482825 0.17902,2.71516 0.5582,6.66307 0.84262,8.77312 0.62428,4.63127 0.62748,4.76249 0.116,4.76249 -0.22285,0 -0.47371,0.17859 -0.55748,0.39687 -0.0838,0.21829 -0.43721,0.39688 -0.78544,0.39688 -0.72662,0 -0.77383,0.18863 -0.22786,0.91047 0.5503,0.72757 0.48657,1.13214 -0.30271,1.92141 -0.58707,0.58708 -0.67197,0.86143 -0.56373,1.82171 0.12464,1.10585 -0.13237,1.69641 -0.7383,1.69641 -0.16492,0 -0.37212,-0.0723 -0.46043,-0.16057 z M 112.10092,33.722009 c 1.64801,-0.12626 3.28695,-0.007 3.64209,0.0216 0.35515,0.0289 0.78616,-0.064 0.9578,-0.20648 0.17165,-0.14246 1.1324,-0.29731 2.13501,-0.34413 1.00261,-0.0468 2.08182,-0.22367 2.39825,-0.39302 0.31642,-0.16934 0.93806,-0.3079 1.38142,-0.3079 0.99247,0 0.92385,-0.30054 1.50036,6.57159 0.55302,6.59207 0.39925,14.356425 -0.40431,20.415915 -0.29912,2.25557 -0.54399,4.1308 -0.54415,4.16718 -8.3e-4,0.18309 -1.38104,0.03 -2.0336,-0.22555 -0.40965,-0.16043 -1.55214,-0.32747 -2.53887,-0.37121 -0.98673,-0.0437 -1.96378,-0.22037 -2.17122,-0.39254 -0.20745,-0.17215 -0.47759,-0.25096 -0.60031,-0.17512 -0.12272,0.0759 -1.92189,-0.40711 -3.72247,-0.53341"
       style="fill:#000000"
       id="path1-61"
       sodipodi:nodetypes="ccssssssssscsssccssssssssssssssscccssssssssscscc" /></g></svg>
