<?xml version="1.0" encoding="UTF-8" standalone="no"?>
<!-- Created with Inkscape (http://www.inkscape.org/) -->

<svg
   width="18.020512mm"
   height="48.275024mm"
   viewBox="0 0 18.020511 48.275024"
   version="1.1"
   id="svg1"
   xml:space="preserve"
   sodipodi:docname="parchment-left.svg"
   inkscape:version="1.4.3 (0d15f75042, 2025-12-25)"
   xmlns:inkscape="http://www.inkscape.org/namespaces/inkscape"
   xmlns:sodipodi="http://sodipodi.sourceforge.net/DTD/sodipodi-0.dtd"
   xmlns="http://www.w3.org/2000/svg"
   xmlns:svg="http://www.w3.org/2000/svg"><sodipodi:namedview
     id="namedview1"
     pagecolor="#ffffff"
     bordercolor="#000000"
     borderopacity="0.25"
     inkscape:showpageshadow="2"
     inkscape:pageopacity="0.0"
     inkscape:pagecheckerboard="0"
     inkscape:deskcolor="#d1d1d1"
     inkscape:document-units="mm"
     showguides="true"
     inkscape:zoom="2.4341828"
     inkscape:cx="24.854337"
     inkscape:cy="127.3528"
     inkscape:window-width="1805"
     inkscape:window-height="1131"
     inkscape:window-x="0"
     inkscape:window-y="0"
     inkscape:window-maximized="1"
     inkscape:current-layer="layer1"><sodipodi:guide
       position="18.020514,28.735058"
       orientation="1,0"
       id="guide1"
       inkscape:locked="false" /><sodipodi:guide
       position="49.62834,30.284016"
       orientation="1,0"
       id="guide2"
       inkscape:locked="false" /><sodipodi:guide
       position="6.4107198,48.275024"
       orientation="0,-1"
       id="guide3"
       inkscape:locked="false" /><sodipodi:guide
       position="9.8686688e-07,22.989155"
       orientation="1,0"
       id="guide4"
       inkscape:locked="false" /><sodipodi:guide
       position="25.159126,6.952033e-07"
       orientation="0,-1"
       id="guide5"
       inkscape:locked="false" /><sodipodi:guide
       position="67.537927,14.647876"
       orientation="1,0"
       id="guide6"
       inkscape:locked="false" /></sodipodi:namedview><defs
     id="defs1" /><g
     inkscape:label="Calque 1"
     inkscape:groupmode="layer"
     id="layer1"
     transform="translate(-62.47258,-24.16921)"><path
       d="m 65.441802,72.024938 c -0.16851,-0.16851 -0.23496,-0.78476 -0.15812,-1.46647 0.11506,-1.02075 0.0407,-1.26093 -0.56373,-1.82111 -0.7934,-0.73529 -0.86072,-1.14574 -0.30781,-1.87674 0.54597,-0.72184 0.49876,-0.91047 -0.22786,-0.91047 -0.34823,0 -0.70169,-0.17859 -0.78545,-0.39688 -0.0838,-0.21828 -0.33462,-0.39687 -0.55747,-0.39687 -0.50797,0 -0.5091,0.0472 0.10868,-4.52843 0.59269,-4.38983 1.06847,-10.272 1.07827,-13.33095 0.004,-1.16416 -0.25823,-5.190245 -0.58211,-8.946835 -0.39737,-4.60883 -0.50051,-6.88913 -0.31714,-7.01146 0.14947,-0.0997 0.34863,-0.38965 0.44259,-0.64431 0.094,-0.25466 0.41945,-0.46302 0.72331,-0.46302 0.51807,0 0.52683,-0.0366 0.1406,-0.58804 -0.5693,-0.81278 -0.51924,-1.18074 0.26771,-1.96769 0.5321,-0.5321 0.67033,-0.91707 0.63692,-1.77391 -0.067,-1.71881 -0.0388,-1.799 0.60172,-1.70803 0.54045,0.0768 0.5875,0.20666 0.51053,1.40969 -0.0736,1.14973 0.005,1.40342 0.59531,1.91648 0.78137,0.67939 0.87382,1.52972 0.24221,2.22764 -0.41386,0.45732 -0.39899,0.48386 0.27114,0.48386 0.49825,0 0.77842,0.18255 0.94249,0.61411 0.14878,0.39131 -0.006,3.19908 -0.42687,7.73906 -0.61007,6.582365 -0.63833,7.512185 -0.37104,12.209785 0.33077,5.81318 1.22988,13.24298 1.66621,13.76873 0.22898,0.27589 0.1668,0.38906 -0.27762,0.50528 -0.31497,0.0824 -0.57267,0.31446 -0.57267,0.51577 0,0.21167 -0.27235,0.36602 -0.64585,0.36602 -0.80839,0 -1.05846,0.36743 -0.54187,0.79617 0.60633,0.50321 0.47057,1.48642 -0.2876,2.08279 -0.60392,0.47505 -0.67173,0.69477 -0.59531,1.92901 0.067,1.08177 -0.004,1.41128 -0.31613,1.47519 -0.22131,0.0453 -0.53318,-0.0485 -0.69304,-0.20837 z m 3.51559,-11.4326 c -1.11818,-8.42535 -1.23206,-14.38892 -0.43579,-22.820325 0.2886,-3.05593 0.52573,-5.58601 0.52695,-5.62239 0.001,-0.0364 0.24034,-0.0662 0.53138,-0.0662 0.35278,0 0.52917,0.17639 0.52917,0.52916 0,0.6427 0.41192,0.69169 0.74914,0.0891 0.21334,-0.38121 0.40087,-0.39997 1.40221,-0.14028 1.6137,0.41851 6.53204,1.07442 8.232642,1.30685 v 28.299395 c 0,0 -6.998688,0.90203 -8.639418,1.29464 -0.58899,0.14095 -0.85416,0.0675 -1.13298,-0.31382 -0.35086,-0.47982 -0.36961,-0.47644 -0.51867,0.0935 -0.0851,0.32526 -0.3031,0.59137 -0.48456,0.59137 -0.22214,0 -0.47044,-1.05884 -0.76007,-3.24114 z"
       style="fill:#000000"
       id="path1-6"
       sodipodi:nodetypes="sscsscsscsscscsccccssscsscsssscsscscssssccsscscc" /></g></svg>
